<?xml version="1.0" standalone="no"?>
<svg version="1.0" xmlns="http://www.w3.org/2000/svg"
 width="832.000000pt" height="300.000000pt" viewBox="0 0 832.000000 300.000000"
 preserveAspectRatio="xMidYMid meet">

<g transform="translate(0.000000,300.000000) scale(0.100000,-0.100000)"
fill="#fff" stroke="none">
<path d="M3400 2710 c-832 -31 -1631 -102 -2069 -185 -92 -17 -169 -25 -245
-25 -109 0 -145 -8 -132 -28 3 -5 30 -15 58 -22 29 -7 73 -20 98 -30 25 -10
61 -22 80 -27 l35 -10 -50 -7 c-187 -27 -399 -78 -645 -156 -86 -27 -192 -58
-235 -68 -174 -42 -165 -38 -165 -84 0 -82 66 -275 98 -286 19 -6 15 38 -13
144 -28 109 -30 131 -12 137 14 5 67 -13 123 -41 21 -11 60 -22 86 -26 26 -4
305 -11 620 -16 501 -8 910 -26 1031 -46 42 -7 47 3 14 34 -38 36 -128 71
-202 78 -38 3 -110 16 -160 27 -84 19 -130 21 -725 25 l-635 4 65 24 c73 28
487 131 657 163 61 12 130 28 153 36 104 37 180 17 340 -89 99 -66 223 -110
369 -131 86 -12 401 -34 721 -50 63 -3 340 -17 615 -30 275 -13 597 -31 715
-39 118 -9 341 -23 495 -31 154 -9 397 -25 540 -36 143 -11 348 -22 455 -25
190 -6 196 -6 218 15 27 26 28 37 4 50 -26 14 -164 30 -317 37 -81 4 -122 10
-110 15 11 4 82 5 158 2 75 -3 137 -3 137 0 0 4 -25 14 -55 23 -34 9 -73 31
-101 55 -25 21 -51 39 -58 39 -7 0 -23 -24 -37 -52 l-24 -53 -180 3 c-237 3
-533 18 -835 42 -135 11 -357 26 -495 35 -137 8 -311 19 -385 25 -143 10 -456
23 -965 40 -501 17 -691 39 -798 90 -74 36 -265 144 -280 159 -17 17 -2 24 76
37 39 6 113 19 162 28 306 54 988 123 1440 146 689 34 944 33 1199 -5 417 -63
854 -232 1277 -496 97 -61 240 -132 306 -153 55 -18 69 -29 74 -60 6 -27 29
-32 36 -7 6 24 17 25 94 11 30 -5 234 -32 454 -60 728 -91 969 -146 1260 -284
184 -88 315 -178 315 -217 0 -5 -20 -31 -45 -59 -25 -28 -45 -55 -45 -60 0 -6
12 -10 27 -10 18 0 38 13 65 42 53 58 71 93 59 116 -42 79 -355 263 -561 330
-284 93 -485 130 -1156 217 -297 38 -386 54 -462 84 -27 11 -221 105 -429 209
-348 175 -520 254 -663 304 -446 158 -802 202 -1440 178z"/>
<path d="M2546 1862 c-9 -16 6 -52 23 -52 9 0 132 -7 273 -15 401 -22 529 -35
1453 -145 425 -50 734 -98 1090 -170 235 -48 425 -74 466 -65 17 4 43 23 61
47 l32 39 82 -3 c58 -2 86 1 97 11 22 17 21 27 -2 50 -23 23 -54 27 -356 46
-305 20 -518 39 -770 70 -736 90 -1490 152 -2185 180 -80 3 -170 8 -202 11
-31 2 -59 1 -62 -4z"/>
<path d="M1007 1544 c-206 -46 -339 -143 -422 -308 -181 -361 -19 -759 354
-870 67 -20 165 -22 159 -3 -3 6 -54 37 -114 68 -254 131 -366 288 -351 493 7
94 33 178 76 239 75 110 224 211 350 238 87 18 243 7 331 -24 101 -36 201
-106 251 -175 38 -54 79 -160 79 -207 0 -52 58 -82 74 -38 8 21 -11 135 -33
192 -45 118 -175 259 -298 324 -146 76 -317 103 -456 71z"/>
<path d="M6714 1550 c-118 -17 -223 -71 -324 -167 -81 -76 -136 -154 -166
-239 -70 -192 -14 -437 137 -598 100 -108 273 -197 385 -198 56 -1 79 17 40
32 -15 5 -35 10 -45 10 -10 0 -51 17 -92 37 -200 100 -318 316 -306 559 5 120
41 201 124 280 75 72 210 140 310 155 193 28 432 -52 547 -183 45 -51 62 -86
91 -191 17 -59 37 -79 58 -58 18 18 -9 145 -49 229 -110 229 -421 374 -710
332z"/>
<path d="M2750 1069 c-58 -4 -159 -17 -225 -28 -128 -22 -469 -61 -530 -61
-32 0 -36 -3 -33 -22 3 -23 5 -23 153 -22 83 0 233 9 335 20 255 26 753 24
1200 -5 179 -11 444 -28 590 -36 146 -8 393 -26 550 -40 157 -14 393 -32 525
-40 132 -9 278 -20 325 -25 132 -15 207 -13 214 6 10 26 -10 50 -52 62 -22 7
-46 12 -55 12 -10 0 -21 15 -28 41 -7 23 -23 47 -35 55 -30 20 -78 23 -744 34
-327 6 -874 19 -1215 30 -341 11 -676 21 -745 23 -69 2 -172 1 -230 -4z"/>
</g>
</svg>
